<mxfile host="app.diagrams.net" agent="Mozilla/5.0 (Macintosh; Intel Mac OS X 10_15_7) AppleWebKit/537.36 (KHTML, like Gecko) Chrome/128.0.0.0 Safari/537.36" version="24.7.14">
  <diagram name="Page-1" id="LbUbiFc6LrqvqoF5PVDX">
    <mxGraphModel dx="2021" dy="755" grid="1" gridSize="10" guides="1" tooltips="1" connect="1" arrows="1" fold="1" page="1" pageScale="1" pageWidth="827" pageHeight="1169" math="0" shadow="0">
      <root>
        <mxCell id="0" />
        <mxCell id="1" parent="0" />
        <mxCell id="dPpAq6NhzZ0Jxj9rIUQy-118" value="**AWS Cloud**" style="whiteSpace=wrap;strokeWidth=2;verticalAlign=top;align=center;fillColor=#ffe6cc;strokeColor=#d79b00;glass=0;shadow=1;rounded=1;fontStyle=1" vertex="1" parent="1">
          <mxGeometry x="393" y="535" width="307" height="519" as="geometry" />
        </mxCell>
        <mxCell id="dPpAq6NhzZ0Jxj9rIUQy-119" value="**Docker Container**" style="whiteSpace=wrap;strokeWidth=2;verticalAlign=top;align=left;" vertex="1" parent="1">
          <mxGeometry x="413" y="684" width="267" height="321" as="geometry" />
        </mxCell>
        <mxCell id="dPpAq6NhzZ0Jxj9rIUQy-120" value="**Atlas MongoDB Cloud**" style="whiteSpace=wrap;strokeWidth=2;html=1;align=center;verticalAlign=top;rounded=1;fillColor=#dae8fc;strokeColor=#6c8ebf;fontStyle=1" vertex="1" parent="1">
          <mxGeometry x="20" y="1179" width="680" height="99" as="geometry" />
        </mxCell>
        <mxCell id="dPpAq6NhzZ0Jxj9rIUQy-121" value="**Edge Node**" style="whiteSpace=wrap;strokeWidth=2;align=center;verticalAlign=top;rounded=1;fontStyle=1;fillColor=#e1d5e7;strokeColor=#9673a6;" vertex="1" parent="1">
          <mxGeometry x="-80" y="732" width="245" height="396" as="geometry" />
        </mxCell>
        <mxCell id="dPpAq6NhzZ0Jxj9rIUQy-122" value="**On Premises**" style="whiteSpace=wrap;strokeWidth=2;verticalAlign=top;align=center;fontStyle=1;rounded=1;fillColor=#f5f5f5;fontColor=#333333;strokeColor=#666666;" vertex="1" parent="1">
          <mxGeometry x="-65" y="460" width="209" height="222" as="geometry" />
        </mxCell>
        <mxCell id="dPpAq6NhzZ0Jxj9rIUQy-149" style="edgeStyle=orthogonalEdgeStyle;rounded=0;orthogonalLoop=1;jettySize=auto;html=1;" edge="1" parent="1" source="dPpAq6NhzZ0Jxj9rIUQy-123" target="dPpAq6NhzZ0Jxj9rIUQy-126">
          <mxGeometry relative="1" as="geometry" />
        </mxCell>
        <mxCell id="dPpAq6NhzZ0Jxj9rIUQy-123" value="Fog Node" style="rounded=1;arcSize=40;strokeWidth=2" vertex="1" parent="1">
          <mxGeometry x="-8" y="608" width="96" height="49" as="geometry" />
        </mxCell>
        <mxCell id="dPpAq6NhzZ0Jxj9rIUQy-124" value="Scanner Device" style="rounded=1;arcSize=40;strokeWidth=2" vertex="1" parent="1">
          <mxGeometry x="-30" y="510" width="139" height="49" as="geometry" />
        </mxCell>
        <mxCell id="dPpAq6NhzZ0Jxj9rIUQy-147" style="edgeStyle=orthogonalEdgeStyle;rounded=0;orthogonalLoop=1;jettySize=auto;html=1;" edge="1" parent="1" source="dPpAq6NhzZ0Jxj9rIUQy-125" target="dPpAq6NhzZ0Jxj9rIUQy-128">
          <mxGeometry relative="1" as="geometry">
            <mxPoint x="580" y="1150" as="targetPoint" />
            <Array as="points">
              <mxPoint x="190" y="1020" />
              <mxPoint x="190" y="1150" />
              <mxPoint x="155" y="1150" />
            </Array>
          </mxGeometry>
        </mxCell>
        <mxCell id="dPpAq6NhzZ0Jxj9rIUQy-125" value="Node.js Application" style="rounded=1;arcSize=40;strokeWidth=2" vertex="1" parent="1">
          <mxGeometry x="-45.5" y="1000" width="170" height="49" as="geometry" />
        </mxCell>
        <mxCell id="dPpAq6NhzZ0Jxj9rIUQy-152" value="" style="edgeStyle=orthogonalEdgeStyle;rounded=0;orthogonalLoop=1;jettySize=auto;html=1;" edge="1" parent="1" source="dPpAq6NhzZ0Jxj9rIUQy-126" target="dPpAq6NhzZ0Jxj9rIUQy-127">
          <mxGeometry relative="1" as="geometry" />
        </mxCell>
        <mxCell id="dPpAq6NhzZ0Jxj9rIUQy-126" value="Bash Script" style="rounded=1;arcSize=40;strokeWidth=2" vertex="1" parent="1">
          <mxGeometry x="-15" y="773" width="109" height="49" as="geometry" />
        </mxCell>
        <mxCell id="dPpAq6NhzZ0Jxj9rIUQy-148" style="edgeStyle=orthogonalEdgeStyle;rounded=0;orthogonalLoop=1;jettySize=auto;html=1;" edge="1" parent="1" source="dPpAq6NhzZ0Jxj9rIUQy-128" target="dPpAq6NhzZ0Jxj9rIUQy-133">
          <mxGeometry relative="1" as="geometry">
            <Array as="points">
              <mxPoint x="270" y="1229" />
              <mxPoint x="270" y="850" />
            </Array>
          </mxGeometry>
        </mxCell>
        <mxCell id="dPpAq6NhzZ0Jxj9rIUQy-128" value="groceryitems Collection" style="rounded=1;arcSize=40;strokeWidth=2" vertex="1" parent="1">
          <mxGeometry x="55" y="1204" width="200" height="49" as="geometry" />
        </mxCell>
        <mxCell id="dPpAq6NhzZ0Jxj9rIUQy-129" value="items Collection" style="rounded=1;arcSize=40;strokeWidth=2" vertex="1" parent="1">
          <mxGeometry x="305" y="1204" width="147" height="49" as="geometry" />
        </mxCell>
        <mxCell id="dPpAq6NhzZ0Jxj9rIUQy-130" value="settings Collection" style="rounded=1;arcSize=40;strokeWidth=2" vertex="1" parent="1">
          <mxGeometry x="502" y="1204" width="163" height="49" as="geometry" />
        </mxCell>
        <mxCell id="dPpAq6NhzZ0Jxj9rIUQy-131" value="AWS EC2 Instance" style="rounded=1;arcSize=40;strokeWidth=2" vertex="1" parent="1">
          <mxGeometry x="470" y="560" width="155" height="49" as="geometry" />
        </mxCell>
        <mxCell id="dPpAq6NhzZ0Jxj9rIUQy-155" style="edgeStyle=orthogonalEdgeStyle;rounded=0;orthogonalLoop=1;jettySize=auto;html=1;" edge="1" parent="1" target="dPpAq6NhzZ0Jxj9rIUQy-129">
          <mxGeometry relative="1" as="geometry">
            <mxPoint x="548" y="820" as="sourcePoint" />
            <mxPoint x="380" y="1155" as="targetPoint" />
            <Array as="points">
              <mxPoint x="548" y="841" />
              <mxPoint x="380" y="841" />
            </Array>
          </mxGeometry>
        </mxCell>
        <mxCell id="dPpAq6NhzZ0Jxj9rIUQy-132" value="groceryfrontend HTML" style="rounded=1;arcSize=40;strokeWidth=2" vertex="1" parent="1">
          <mxGeometry x="451" y="724" width="194" height="49" as="geometry" />
        </mxCell>
        <mxCell id="dPpAq6NhzZ0Jxj9rIUQy-146" value="" style="edgeStyle=orthogonalEdgeStyle;rounded=0;orthogonalLoop=1;jettySize=auto;html=1;" edge="1" parent="1" source="dPpAq6NhzZ0Jxj9rIUQy-133" target="dPpAq6NhzZ0Jxj9rIUQy-134">
          <mxGeometry relative="1" as="geometry" />
        </mxCell>
        <mxCell id="dPpAq6NhzZ0Jxj9rIUQy-157" style="edgeStyle=orthogonalEdgeStyle;rounded=0;orthogonalLoop=1;jettySize=auto;html=1;" edge="1" parent="1" source="dPpAq6NhzZ0Jxj9rIUQy-133" target="dPpAq6NhzZ0Jxj9rIUQy-130">
          <mxGeometry relative="1" as="geometry">
            <Array as="points">
              <mxPoint x="720" y="845" />
              <mxPoint x="720" y="1230" />
            </Array>
          </mxGeometry>
        </mxCell>
        <mxCell id="dPpAq6NhzZ0Jxj9rIUQy-133" value="Node.js Server" style="rounded=1;arcSize=40;strokeWidth=2" vertex="1" parent="1">
          <mxGeometry x="471" y="820" width="154" height="49" as="geometry" />
        </mxCell>
        <mxCell id="dPpAq6NhzZ0Jxj9rIUQy-134" value="Ports Mapped to 80" style="rounded=1;arcSize=40;strokeWidth=2" vertex="1" parent="1">
          <mxGeometry x="464" y="925" width="167" height="49" as="geometry" />
        </mxCell>
        <mxCell id="dPpAq6NhzZ0Jxj9rIUQy-135" value="" style="curved=1;startArrow=none;endArrow=block;exitX=0.5;exitY=0.98;entryX=0.5;entryY=0;rounded=0;" edge="1" parent="1" source="dPpAq6NhzZ0Jxj9rIUQy-124" target="dPpAq6NhzZ0Jxj9rIUQy-123">
          <mxGeometry relative="1" as="geometry">
            <Array as="points" />
          </mxGeometry>
        </mxCell>
        <mxCell id="dPpAq6NhzZ0Jxj9rIUQy-142" value="" style="curved=1;startArrow=none;endArrow=block;exitX=0.5;exitY=0.98;entryX=0.5;entryY=0;rounded=0;" edge="1" parent="1" source="dPpAq6NhzZ0Jxj9rIUQy-132" target="dPpAq6NhzZ0Jxj9rIUQy-133">
          <mxGeometry relative="1" as="geometry">
            <Array as="points" />
          </mxGeometry>
        </mxCell>
        <mxCell id="dPpAq6NhzZ0Jxj9rIUQy-145" value="" style="curved=1;startArrow=none;endArrow=block;rounded=0;" edge="1" parent="1" source="dPpAq6NhzZ0Jxj9rIUQy-131" target="dPpAq6NhzZ0Jxj9rIUQy-119">
          <mxGeometry relative="1" as="geometry">
            <Array as="points" />
          </mxGeometry>
        </mxCell>
        <mxCell id="dPpAq6NhzZ0Jxj9rIUQy-153" style="edgeStyle=orthogonalEdgeStyle;rounded=0;orthogonalLoop=1;jettySize=auto;html=1;entryX=0.5;entryY=0;entryDx=0;entryDy=0;" edge="1" parent="1" source="dPpAq6NhzZ0Jxj9rIUQy-127" target="dPpAq6NhzZ0Jxj9rIUQy-125">
          <mxGeometry relative="1" as="geometry" />
        </mxCell>
        <mxCell id="dPpAq6NhzZ0Jxj9rIUQy-127" value="JSON File" style="rounded=1;arcSize=40;strokeWidth=2" vertex="1" parent="1">
          <mxGeometry x="-10" y="876" width="98" height="49" as="geometry" />
        </mxCell>
      </root>
    </mxGraphModel>
  </diagram>
</mxfile>
